<?xml version="1.0" encoding="utf-8"?>
<!-- Generator: Adobe Illustrator 23.0.1, SVG Export Plug-In . SVG Version: 6.00 Build 0)  -->
<svg version="1.1" id="Layer_1" xmlns="http://www.w3.org/2000/svg" xmlns:xlink="http://www.w3.org/1999/xlink" x="0px" y="0px"
	 viewBox="0 0 299.3 372.1" style="enable-background:new 0 0 299.3 372.1;" xml:space="preserve">
<style type="text/css">
	.st0{fill:#FFFFFF;}
	.st1{clip-path:url(#SVGID_2_);fill:#1F77B4;}
	.st2{clip-path:url(#SVGID_4_);fill:#1F77B4;}
	.st3{clip-path:url(#SVGID_6_);fill:#FF7F0E;}
	.st4{clip-path:url(#SVGID_8_);fill:#FF7F0E;}
	
		.st5{clip-path:url(#SVGID_10_);fill:none;stroke:#000000;stroke-width:0.6;stroke-linecap:square;stroke-linejoin:round;stroke-opacity:0.11;}
	
		.st6{clip-path:url(#SVGID_12_);fill:none;stroke:#000000;stroke-width:0.6;stroke-linecap:square;stroke-linejoin:round;stroke-opacity:0.11;}
	
		.st7{clip-path:url(#SVGID_14_);fill:none;stroke:#000000;stroke-width:0.6;stroke-linecap:square;stroke-linejoin:round;stroke-opacity:0.11;}
	.st8{stroke:#000000;stroke-width:0.6;stroke-linejoin:round;}
	
		.st9{clip-path:url(#SVGID_16_);fill:none;stroke:#000000;stroke-width:0.6;stroke-linecap:square;stroke-linejoin:round;stroke-opacity:0.11;}
	
		.st10{clip-path:url(#SVGID_18_);fill:none;stroke:#000000;stroke-width:0.6;stroke-linecap:square;stroke-linejoin:round;stroke-opacity:0.11;}
	
		.st11{clip-path:url(#SVGID_20_);fill:none;stroke:#000000;stroke-width:0.6;stroke-linecap:square;stroke-linejoin:round;stroke-opacity:0.11;}
	
		.st12{clip-path:url(#SVGID_22_);fill:none;stroke:#000000;stroke-width:0.6;stroke-linecap:square;stroke-linejoin:round;stroke-opacity:0.11;}
	
		.st13{clip-path:url(#SVGID_24_);fill:none;stroke:#000000;stroke-width:0.6;stroke-linecap:square;stroke-linejoin:round;stroke-opacity:0.11;}
	.st14{stroke:#000000;stroke-width:0.48;stroke-linejoin:round;}
	.st15{fill:none;stroke:#000000;stroke-width:0.6;stroke-linecap:square;}
	.st16{opacity:0.8;fill:#FFFFFF;stroke:#000000;stroke-width:0.6;enable-background:new    ;}
	.st17{fill:#1F77B4;}
	.st18{fill:#FF7F0E;}
	.st19{font-family:'MyriadPro-Black';}
	.st20{font-size:18px;}
	.st21{font-family:'MyriadPro-Regular';}
	.st22{font-size:14px;}
</style>
<g id="patch_2">
	<path class="st0" d="M48.3,322.7h248.3v-265H48.3V322.7z"/>
</g>
<g id="patch_3">
	<g>
		<defs>
			<rect id="SVGID_1_" x="48.3" y="57.7" width="248.3" height="265"/>
		</defs>
		<clipPath id="SVGID_2_">
			<use xlink:href="#SVGID_1_"  style="overflow:visible;"/>
		</clipPath>
		<path class="st1" d="M59.6,322.7h45.1V100.1H59.6V322.7z"/>
	</g>
</g>
<g id="patch_4">
	<g>
		<defs>
			<rect id="SVGID_3_" x="48.3" y="57.7" width="248.3" height="265"/>
		</defs>
		<clipPath id="SVGID_4_">
			<use xlink:href="#SVGID_3_"  style="overflow:visible;"/>
		</clipPath>
		<path class="st2" d="M195.1,322.7h45.1V100.5h-45.1V322.7z"/>
	</g>
</g>
<g id="patch_5">
	<g>
		<defs>
			<rect id="SVGID_5_" x="48.3" y="57.7" width="248.3" height="265"/>
		</defs>
		<clipPath id="SVGID_6_">
			<use xlink:href="#SVGID_5_"  style="overflow:visible;"/>
		</clipPath>
		<path class="st3" d="M104.7,322.7h45.1V105.4h-45.1V322.7z"/>
	</g>
</g>
<g id="patch_6">
	<g>
		<defs>
			<rect id="SVGID_7_" x="48.3" y="57.7" width="248.3" height="265"/>
		</defs>
		<clipPath id="SVGID_8_">
			<use xlink:href="#SVGID_7_"  style="overflow:visible;"/>
		</clipPath>
		<path class="st4" d="M240.2,322.7h45.1V124.3h-45.1V322.7z"/>
	</g>
</g>
<g id="matplotlib.axis_1">
	<g id="xtick_1">
		<g id="line2d_1">
			<g>
				<defs>
					<rect id="SVGID_9_" x="48.3" y="57.7" width="248.3" height="265"/>
				</defs>
				<clipPath id="SVGID_10_">
					<use xlink:href="#SVGID_9_"  style="overflow:visible;"/>
				</clipPath>
				<path class="st5" d="M104.7,322.7v-265"/>
			</g>
		</g>
	</g>
	<g id="xtick_2">
		<g id="line2d_2">
			<g>
				<defs>
					<rect id="SVGID_11_" x="48.3" y="57.7" width="248.3" height="265"/>
				</defs>
				<clipPath id="SVGID_12_">
					<use xlink:href="#SVGID_11_"  style="overflow:visible;"/>
				</clipPath>
				<path class="st6" d="M240.2,322.7v-265"/>
			</g>
		</g>
	</g>
	<g id="xtick_3">
	</g>
	<g id="xtick_4">
	</g>
	<g id="xtick_5">
	</g>
	<g id="xtick_6">
	</g>
	<g id="xtick_7">
	</g>
	<g id="xtick_8">
	</g>
	<g id="xtick_9">
	</g>
	<g id="xtick_10">
	</g>
</g>
<g id="ytick_1">
	<g id="line2d_3">
		<g>
			<defs>
				<rect id="SVGID_13_" x="48.3" y="57.7" width="248.3" height="265"/>
			</defs>
			<clipPath id="SVGID_14_">
				<use xlink:href="#SVGID_13_"  style="overflow:visible;"/>
			</clipPath>
			<path class="st7" d="M48.3,322.7h248.3"/>
		</g>
	</g>
	<g id="line2d_4">
		<g>
			<g>
				<path id="m0e6db1a9d0" class="st8" d="M48.3,322.7h-4"/>
			</g>
		</g>
	</g>
	<g id="text_1">
		<g transform="translate(29.891875 287.237801) scale(0.09 -0.09)">
			<g>
				<path id="TeXGyreHeros-Regular-30" d="M133-396.4c0-11.6-2-20.4-6-26.5c-4-6.1-9.7-9.1-17.3-9.1c-7.6,0-13.4,3-17.3,9.1
					c-3.9,6.1-5.9,15.1-5.9,27c0,11.9,1.9,21,5.8,27.1c3.9,6.1,9.7,9.2,17.4,9.2C125.3-359.6,133-371.9,133-396.4z M124-395.6
					c0,18.8-4.7,28.2-14.2,28.2s-14.2-9.5-14.2-28.5c0-19.2,4.7-28.8,14-28.8c4.9,0,8.6,2.3,10.9,7C122.9-413,124-405.6,124-395.6z"
					/>
			</g>
		</g>
	</g>
</g>
<g id="ytick_2">
	<g id="line2d_5">
		<g>
			<defs>
				<rect id="SVGID_15_" x="48.3" y="57.7" width="248.3" height="265"/>
			</defs>
			<clipPath id="SVGID_16_">
				<use xlink:href="#SVGID_15_"  style="overflow:visible;"/>
			</clipPath>
			<path class="st9" d="M48.3,278.2h248.3"/>
		</g>
	</g>
	<g id="line2d_6">
		<g>
			<g>
				<path class="st8" d="M48.3,278.2h-4"/>
			</g>
		</g>
	</g>
	<g id="text_2">
		<g transform="translate(24.888438 242.694316) scale(0.09 -0.09)">
			<g>
				<path id="TeXGyreHeros-Regular-32" d="M133.4-380.4c0-8.9-5-16.1-15-21.4l-10-5.4c-4.3-2.5-7.4-4.9-9.3-7
					c-1.9-2.1-3-4.7-3.5-7.6h37.3v-8.7H85.7c0.4,7.8,2,13.8,4.7,18c2.7,4.2,7.8,8.5,15.2,12.7l9.2,5.2c6.4,3.7,9.6,8.3,9.6,14
					c0,3.8-1.3,7-4,9.5c-2.7,2.5-6,3.8-10,3.8c-4.5,0-7.9-1.4-10.3-4.1c-2.4-2.7-3.7-7-4-12.8h-8.8c0.5,16.4,8.3,24.6,23.4,24.6
					c6.7,0,12.1-2,16.3-5.9C131.3-369.5,133.4-374.4,133.4-380.4z"/>
			</g>
			<g>
				<path d="M188.6-396.4c0-11.6-2-20.4-6-26.5c-4-6.1-9.7-9.1-17.3-9.1c-7.6,0-13.4,3-17.3,9.1c-3.9,6.1-5.9,15.1-5.9,27
					c0,11.9,1.9,21,5.8,27.1c3.9,6.1,9.7,9.2,17.4,9.2C180.9-359.6,188.6-371.9,188.6-396.4z M179.6-395.6
					c0,18.8-4.7,28.2-14.2,28.2s-14.2-9.5-14.2-28.5c0-19.2,4.7-28.8,14-28.8c4.9,0,8.6,2.3,10.9,7
					C178.5-413,179.6-405.6,179.6-395.6z"/>
			</g>
		</g>
	</g>
</g>
<g id="ytick_3">
	<g id="line2d_7">
		<g>
			<defs>
				<rect id="SVGID_17_" x="48.3" y="57.7" width="248.3" height="265"/>
			</defs>
			<clipPath id="SVGID_18_">
				<use xlink:href="#SVGID_17_"  style="overflow:visible;"/>
			</clipPath>
			<path class="st10" d="M48.3,233.6h248.3"/>
		</g>
	</g>
	<g id="line2d_8">
		<g>
			<g>
				<path class="st8" d="M48.3,233.6h-4"/>
			</g>
		</g>
	</g>
	<g id="text_3">
		<g transform="translate(24.888438 198.15083) scale(0.09 -0.09)">
			<g>
				<path id="TeXGyreHeros-Regular-34" d="M134.3-413.5h-10.5v-17H115v17H85.1v9.3l32.2,44.6h6.5v-46h10.5V-413.5z M115-405.6v31
					l-22.2-31H115z"/>
			</g>
			<g>
				<path d="M188.6-396.4c0-11.6-2-20.4-6-26.5c-4-6.1-9.7-9.1-17.3-9.1c-7.6,0-13.4,3-17.3,9.1c-3.9,6.1-5.9,15.1-5.9,27
					c0,11.9,1.9,21,5.8,27.1c3.9,6.1,9.7,9.2,17.4,9.2C180.9-359.6,188.6-371.9,188.6-396.4z M179.6-395.6
					c0,18.8-4.7,28.2-14.2,28.2s-14.2-9.5-14.2-28.5c0-19.2,4.7-28.8,14-28.8c4.9,0,8.6,2.3,10.9,7
					C178.5-413,179.6-405.6,179.6-395.6z"/>
			</g>
		</g>
	</g>
</g>
<g id="ytick_4">
	<g id="line2d_9">
		<g>
			<defs>
				<rect id="SVGID_19_" x="48.3" y="57.7" width="248.3" height="265"/>
			</defs>
			<clipPath id="SVGID_20_">
				<use xlink:href="#SVGID_19_"  style="overflow:visible;"/>
			</clipPath>
			<path class="st11" d="M48.3,189.1h248.3"/>
		</g>
	</g>
	<g id="line2d_10">
		<g>
			<g>
				<path class="st8" d="M48.3,189.1h-4"/>
			</g>
		</g>
	</g>
	<g id="text_4">
		<g transform="translate(24.888438 153.607345) scale(0.09 -0.09)">
			<g>
				<path id="TeXGyreHeros-Regular-36" d="M133.6-408.5c0-6.9-2.2-12.6-6.5-17c-4.3-4.4-9.9-6.5-16.7-6.5
					c-15.9,0-23.8,11.3-23.8,33.8c0,12.4,2.2,21.9,6.5,28.6c4.4,6.7,10.7,10,18.9,10c5.4,0,9.9-1.6,13.4-4.9
					c3.6-3.3,5.8-7.8,6.7-13.6h-8.8c-0.7,3.4-2.1,6-4.2,7.9c-2.1,1.9-4.6,2.8-7.7,2.8c-5.1,0-8.9-2.3-11.6-7
					c-2.7-4.6-4.1-11.3-4.2-19.9c3.9,5.3,9.3,7.9,16.3,7.9c6.4,0,11.6-2,15.7-6.1C131.6-396.6,133.6-401.9,133.6-408.5z
					 M124.6-409.2c0,4.7-1.2,8.4-3.7,11c-2.5,2.6-5.8,4-10.1,4c-4.4,0-7.9-1.3-10.7-4c-2.7-2.6-4-6.1-4-10.5c0-4.5,1.4-8.3,4.1-11.2
					c2.7-2.9,6.2-4.3,10.3-4.3c4.1,0,7.4,1.4,10.1,4.2C123.3-417.2,124.6-413.6,124.6-409.2z"/>
			</g>
			<g>
				<path d="M188.6-396.4c0-11.6-2-20.4-6-26.5c-4-6.1-9.7-9.1-17.3-9.1c-7.6,0-13.4,3-17.3,9.1c-3.9,6.1-5.9,15.1-5.9,27
					c0,11.9,1.9,21,5.8,27.1c3.9,6.1,9.7,9.2,17.4,9.2C180.9-359.6,188.6-371.9,188.6-396.4z M179.6-395.6
					c0,18.8-4.7,28.2-14.2,28.2s-14.2-9.5-14.2-28.5c0-19.2,4.7-28.8,14-28.8c4.9,0,8.6,2.3,10.9,7
					C178.5-413,179.6-405.6,179.6-395.6z"/>
			</g>
		</g>
	</g>
</g>
<g id="ytick_5">
	<g id="line2d_11">
		<g>
			<defs>
				<rect id="SVGID_21_" x="48.3" y="57.7" width="248.3" height="265"/>
			</defs>
			<clipPath id="SVGID_22_">
				<use xlink:href="#SVGID_21_"  style="overflow:visible;"/>
			</clipPath>
			<path class="st12" d="M48.3,144.5h248.3"/>
		</g>
	</g>
	<g id="line2d_12">
		<g>
			<g>
				<path class="st8" d="M48.3,144.5h-4"/>
			</g>
		</g>
	</g>
	<g id="text_5">
		<g transform="translate(24.888438 109.063859) scale(0.09 -0.09)">
			<g>
				<path id="TeXGyreHeros-Regular-38" d="M133.6-410.5c0-6.4-2.2-11.6-6.7-15.5c-4.4-4-10.1-6-17.1-6c-7.1,0-12.8,2-17.2,6
					c-4.4,4-6.6,9.2-6.6,15.6c0,7.6,4,13.3,12.1,17.2c-3.6,2.3-6.1,4.5-7.5,6.6c-1.4,2.1-2.1,4.8-2.1,8.1c0,5.5,2,10.1,5.9,13.6
					c4,3.5,9.1,5.3,15.4,5.3c6.3,0,11.4-1.8,15.3-5.3c4-3.5,6-8.1,6-13.6c0-3.3-0.7-6.1-2.1-8.2c-1.4-2.1-3.9-4.3-7.6-6.5
					C129.6-397.1,133.6-402.9,133.6-410.5z M122.1-378.7c0,3.5-1.1,6.2-3.4,8.3c-2.2,2-5.2,3-8.9,3s-6.7-1-9-3
					c-2.2-2-3.3-4.7-3.3-8.1c0-3.3,1.1-6,3.3-8.1c2.2-2,5.2-3,9-3c3.7,0,6.6,1,8.9,3C121-384.7,122.1-382.1,122.1-378.7z
					 M124.6-410.6c0,4.1-1.3,7.4-4,9.8c-2.7,2.4-6.3,3.7-10.8,3.7s-8.1-1.2-10.8-3.7c-2.7-2.4-4-5.7-4-9.9c0-4.1,1.3-7.4,4-9.9
					c2.7-2.5,6.2-3.7,10.5-3.7c4.5,0,8.2,1.2,10.9,3.6C123.3-418.2,124.6-414.8,124.6-410.6z"/>
			</g>
			<g>
				<path d="M188.6-396.4c0-11.6-2-20.4-6-26.5c-4-6.1-9.7-9.1-17.3-9.1c-7.6,0-13.4,3-17.3,9.1c-3.9,6.1-5.9,15.1-5.9,27
					c0,11.9,1.9,21,5.8,27.1c3.9,6.1,9.7,9.2,17.4,9.2C180.9-359.6,188.6-371.9,188.6-396.4z M179.6-395.6
					c0,18.8-4.7,28.2-14.2,28.2s-14.2-9.5-14.2-28.5c0-19.2,4.7-28.8,14-28.8c4.9,0,8.6,2.3,10.9,7
					C178.5-413,179.6-405.6,179.6-395.6z"/>
			</g>
		</g>
	</g>
</g>
<g id="ytick_6">
	<g id="line2d_13">
		<g>
			<defs>
				<rect id="SVGID_23_" x="48.3" y="57.7" width="248.3" height="265"/>
			</defs>
			<clipPath id="SVGID_24_">
				<use xlink:href="#SVGID_23_"  style="overflow:visible;"/>
			</clipPath>
			<path class="st13" d="M48.3,100h248.3"/>
		</g>
	</g>
	<g id="line2d_14">
		<g>
			<g>
				<path class="st8" d="M48.3,100h-4"/>
			</g>
		</g>
	</g>
	<g id="text_6">
		<g transform="translate(19.885 64.520374) scale(0.09 -0.09)">
			<g>
				<path id="TeXGyreHeros-Regular-31" d="M117-430.5h-8.8v50.5H92.5v6.3c6.8,0.9,11.2,2.1,13.3,3.6c2.1,1.5,3.9,5,5.4,10.5h5.8
					V-430.5z"/>
			</g>
			<g>
				<path d="M188.6-396.4c0-11.6-2-20.4-6-26.5c-4-6.1-9.7-9.1-17.3-9.1c-7.6,0-13.4,3-17.3,9.1c-3.9,6.1-5.9,15.1-5.9,27
					c0,11.9,1.9,21,5.8,27.1c3.9,6.1,9.7,9.2,17.4,9.2C180.9-359.6,188.6-371.9,188.6-396.4z M179.6-395.6
					c0,18.8-4.7,28.2-14.2,28.2c-9.5,0-14.2-9.5-14.2-28.5c0-19.2,4.7-28.8,14-28.8c4.9,0,8.6,2.3,10.9,7
					C178.5-413,179.6-405.6,179.6-395.6z"/>
			</g>
			<g>
				<path d="M244.2-396.4c0-11.6-2-20.4-6-26.5c-4-6.1-9.7-9.1-17.3-9.1c-7.6,0-13.4,3-17.3,9.1c-3.9,6.1-5.9,15.1-5.9,27
					c0,11.9,1.9,21,5.8,27.1c3.9,6.1,9.7,9.2,17.4,9.2C236.5-359.6,244.2-371.9,244.2-396.4z M235.2-395.6
					c0,18.8-4.7,28.2-14.2,28.2s-14.2-9.5-14.2-28.5c0-19.2,4.7-28.8,14-28.8c4.9,0,8.6,2.3,10.9,7
					C234.1-413,235.2-405.6,235.2-395.6z"/>
			</g>
		</g>
	</g>
</g>
<g id="ytick_7">
	<g id="line2d_15">
		<g>
			<g>
				<path id="mf446d6949b" class="st14" d="M48.3,311.6h-2"/>
			</g>
		</g>
	</g>
</g>
<g id="ytick_8">
	<g id="line2d_16">
		<g>
			<g>
				<path class="st14" d="M48.3,300.4h-2"/>
			</g>
		</g>
	</g>
</g>
<g id="ytick_9">
	<g id="line2d_17">
		<g>
			<g>
				<path class="st14" d="M48.3,289.3h-2"/>
			</g>
		</g>
	</g>
</g>
<g id="ytick_10">
	<g id="line2d_18">
		<g>
			<g>
				<path class="st14" d="M48.3,267h-2"/>
			</g>
		</g>
	</g>
</g>
<g id="ytick_11">
	<g id="line2d_19">
		<g>
			<g>
				<path class="st14" d="M48.3,255.9h-2"/>
			</g>
		</g>
	</g>
</g>
<g id="ytick_12">
	<g id="line2d_20">
		<g>
			<g>
				<path class="st14" d="M48.3,244.8h-2"/>
			</g>
		</g>
	</g>
</g>
<g id="ytick_13">
	<g id="line2d_21">
		<g>
			<g>
				<path class="st14" d="M48.3,222.5h-2"/>
			</g>
		</g>
	</g>
</g>
<g id="ytick_14">
	<g id="line2d_22">
		<g>
			<g>
				<path class="st14" d="M48.3,211.3h-2"/>
			</g>
		</g>
	</g>
</g>
<g id="ytick_15">
	<g id="line2d_23">
		<g>
			<g>
				<path class="st14" d="M48.3,200.2h-2"/>
			</g>
		</g>
	</g>
</g>
<g id="ytick_16">
	<g id="line2d_24">
		<g>
			<g>
				<path class="st14" d="M48.3,177.9h-2"/>
			</g>
		</g>
	</g>
</g>
<g id="ytick_17">
	<g id="line2d_25">
		<g>
			<g>
				<path class="st14" d="M48.3,166.8h-2"/>
			</g>
		</g>
	</g>
</g>
<g id="ytick_18">
	<g id="line2d_26">
		<g>
			<g>
				<path class="st14" d="M48.3,155.7h-2"/>
			</g>
		</g>
	</g>
</g>
<g id="ytick_19">
	<g id="line2d_27">
		<g>
			<g>
				<path class="st14" d="M48.3,133.4h-2"/>
			</g>
		</g>
	</g>
</g>
<g id="ytick_20">
	<g id="line2d_28">
		<g>
			<g>
				<path class="st14" d="M48.3,122.3h-2"/>
			</g>
		</g>
	</g>
</g>
<g id="ytick_21">
	<g id="line2d_29">
		<g>
			<g>
				<path class="st14" d="M48.3,111.1h-2"/>
			</g>
		</g>
	</g>
</g>
<g id="ytick_22">
	<g id="line2d_30">
		<g>
			<g>
				<path class="st14" d="M48.3,88.9h-2"/>
			</g>
		</g>
	</g>
</g>
<g id="ytick_23">
	<g id="line2d_31">
		<g>
			<g>
				<path class="st14" d="M48.3,77.7h-2"/>
			</g>
		</g>
	</g>
</g>
<g id="ytick_24">
	<g id="line2d_32">
		<g>
			<g>
				<path class="st14" d="M48.3,66.6h-2"/>
			</g>
		</g>
	</g>
</g>
<g id="patch_7">
	<path class="st15" d="M48.3,322.7v-265"/>
</g>
<g id="patch_8">
	<path class="st15" d="M296.6,322.7v-265"/>
</g>
<g id="patch_9">
	<path class="st15" d="M48.3,322.7h248.3"/>
</g>
<g id="patch_10">
	<path class="st15" d="M48.3,57.7h248.3"/>
</g>
<g id="text_8">
	<g transform="translate(63.483693 56.366961) scale(0.09 -0.09)">
		<g>
			<path id="TeXGyreHeros-Regular-39" d="M133.2-393.4c0-12.3-2.2-21.8-6.6-28.5c-4.4-6.7-10.7-10-18.9-10c-5.4,0-9.9,1.6-13.5,4.9
				c-3.6,3.3-5.8,7.8-6.6,13.6h8.8c0.7-3.4,2.1-6,4.2-7.9c2.1-1.9,4.6-2.8,7.7-2.8c5.1,0,8.9,2.3,11.6,7c2.7,4.6,4.1,11.3,4.2,20
				c-4.4-5.3-9.8-7.9-16.2-7.9c-6.4,0-11.6,2-15.7,6.1c-4.1,4.1-6.1,9.4-6.1,16c0,6.9,2.2,12.6,6.5,16.9c4.3,4.4,9.9,6.6,16.7,6.6
				C125.3-359.6,133.2-370.9,133.2-393.4z M123.6-382.9c0,4.5-1.4,8.3-4.1,11.2c-2.7,2.9-6.2,4.4-10.3,4.4c-4.1,0-7.4-1.4-10.1-4.2
				c-2.7-2.8-4-6.4-4-10.9c0-4.7,1.2-8.4,3.7-11c2.5-2.6,5.8-4,10.1-4c4.3,0,7.9,1.3,10.6,4C122.3-390.8,123.6-387.3,123.6-382.9z"
				/>
		</g>
		<g>
			<path d="M188.8-393.4c0-12.3-2.2-21.8-6.6-28.5c-4.4-6.7-10.7-10-18.9-10c-5.4,0-9.9,1.6-13.5,4.9c-3.6,3.3-5.8,7.8-6.6,13.6h8.8
				c0.7-3.4,2.1-6,4.2-7.9c2.1-1.9,4.6-2.8,7.7-2.8c5.1,0,8.9,2.3,11.6,7c2.7,4.6,4.1,11.3,4.2,20c-4.4-5.3-9.8-7.9-16.2-7.9
				c-6.4,0-11.6,2-15.7,6.1c-4.1,4.1-6.1,9.4-6.1,16c0,6.9,2.2,12.6,6.5,16.9c4.3,4.4,9.9,6.6,16.7,6.6
				C180.9-359.6,188.8-370.9,188.8-393.4z M179.2-382.9c0,4.5-1.4,8.3-4.1,11.2c-2.7,2.9-6.2,4.4-10.3,4.4c-4.1,0-7.4-1.4-10.1-4.2
				c-2.7-2.8-4-6.4-4-10.9c0-4.7,1.2-8.4,3.7-11c2.5-2.6,5.8-4,10.1-4c4.3,0,7.9,1.3,10.6,4C177.9-390.8,179.2-387.3,179.2-382.9z"
				/>
		</g>
		<g>
			<path id="TeXGyreHeros-Regular-2e" d="M212.6-430.5h-10.4v10.4h10.4V-430.5z"/>
		</g>
		<g>
			<path d="M272.2-393.4c0-12.3-2.2-21.8-6.6-28.5c-4.4-6.7-10.7-10-18.9-10c-5.4,0-9.9,1.6-13.5,4.9c-3.6,3.3-5.8,7.8-6.6,13.6h8.8
				c0.7-3.4,2.1-6,4.2-7.9c2.1-1.9,4.6-2.8,7.7-2.8c5.1,0,8.9,2.3,11.6,7c2.7,4.6,4.1,11.3,4.2,20c-4.4-5.3-9.8-7.9-16.2-7.9
				c-6.4,0-11.6,2-15.7,6.1c-4.1,4.1-6.1,9.4-6.1,16c0,6.9,2.2,12.6,6.5,16.9c4.3,4.4,9.9,6.6,16.7,6.6
				C264.3-359.6,272.2-370.9,272.2-393.4z M262.6-382.9c0,4.5-1.4,8.3-4.1,11.2c-2.7,2.9-6.2,4.4-10.3,4.4c-4.1,0-7.4-1.4-10.1-4.2
				c-2.7-2.8-4-6.4-4-10.9c0-4.7,1.2-8.4,3.7-11c2.5-2.6,5.8-4,10.1-4c4.3,0,7.9,1.3,10.6,4C261.3-390.8,262.6-387.3,262.6-382.9z"
				/>
		</g>
		<g>
			<path d="M328.2-408.5c0-6.9-2.2-12.6-6.5-17c-4.3-4.4-9.9-6.5-16.7-6.5c-15.9,0-23.8,11.3-23.8,33.8c0,12.4,2.2,21.9,6.5,28.6
				c4.4,6.7,10.7,10,18.9,10c5.4,0,9.9-1.6,13.4-4.9c3.6-3.3,5.8-7.8,6.7-13.6h-8.8c-0.7,3.4-2.1,6-4.2,7.9
				c-2.1,1.9-4.6,2.8-7.7,2.8c-5.1,0-8.9-2.3-11.6-7c-2.7-4.6-4.1-11.3-4.2-19.9c3.9,5.3,9.3,7.9,16.3,7.9c6.4,0,11.6-2,15.7-6.1
				S328.2-401.9,328.2-408.5z M319.2-409.2c0,4.7-1.2,8.4-3.7,11c-2.5,2.6-5.8,4-10.1,4c-4.4,0-7.9-1.3-10.7-4
				c-2.7-2.6-4-6.1-4-10.5c0-4.5,1.4-8.3,4.1-11.2c2.7-2.9,6.2-4.3,10.3-4.3c4.1,0,7.4,1.4,10.1,4.2
				C317.9-417.2,319.2-413.6,319.2-409.2z"/>
		</g>
	</g>
</g>
<g id="text_9">
	<g transform="translate(198.976549 56.790124) scale(0.09 -0.09)">
		<g>
			<path d="M133.2-393.4c0-12.3-2.2-21.8-6.6-28.5c-4.4-6.7-10.7-10-18.9-10c-5.4,0-9.9,1.6-13.5,4.9c-3.6,3.3-5.8,7.8-6.6,13.6h8.8
				c0.7-3.4,2.1-6,4.2-7.9c2.1-1.9,4.6-2.8,7.7-2.8c5.1,0,8.9,2.3,11.6,7c2.7,4.6,4.1,11.3,4.2,20c-4.4-5.3-9.8-7.9-16.2-7.9
				c-6.4,0-11.6,2-15.7,6.1c-4.1,4.1-6.1,9.4-6.1,16c0,6.9,2.2,12.6,6.5,16.9c4.3,4.4,9.9,6.6,16.7,6.6
				C125.3-359.6,133.2-370.9,133.2-393.4z M123.6-382.9c0,4.5-1.4,8.3-4.1,11.2c-2.7,2.9-6.2,4.4-10.3,4.4c-4.1,0-7.4-1.4-10.1-4.2
				c-2.7-2.8-4-6.4-4-10.9c0-4.7,1.2-8.4,3.7-11c2.5-2.6,5.8-4,10.1-4c4.3,0,7.9,1.3,10.6,4C122.3-390.8,123.6-387.3,123.6-382.9z"
				/>
		</g>
		<g>
			<path d="M188.8-393.4c0-12.3-2.2-21.8-6.6-28.5c-4.4-6.7-10.7-10-18.9-10c-5.4,0-9.9,1.6-13.5,4.9c-3.6,3.3-5.8,7.8-6.6,13.6h8.8
				c0.7-3.4,2.1-6,4.2-7.9c2.1-1.9,4.6-2.8,7.7-2.8c5.1,0,8.9,2.3,11.6,7c2.7,4.6,4.1,11.3,4.2,20c-4.4-5.3-9.8-7.9-16.2-7.9
				c-6.4,0-11.6,2-15.7,6.1c-4.1,4.1-6.1,9.4-6.1,16c0,6.9,2.2,12.6,6.5,16.9c4.3,4.4,9.9,6.6,16.7,6.6
				C180.9-359.6,188.8-370.9,188.8-393.4z M179.2-382.9c0,4.5-1.4,8.3-4.1,11.2c-2.7,2.9-6.2,4.4-10.3,4.4c-4.1,0-7.4-1.4-10.1-4.2
				c-2.7-2.8-4-6.4-4-10.9c0-4.7,1.2-8.4,3.7-11c2.5-2.6,5.8-4,10.1-4c4.3,0,7.9,1.3,10.6,4C177.9-390.8,179.2-387.3,179.2-382.9z"
				/>
		</g>
		<g>
			<path d="M212.6-430.5h-10.4v10.4h10.4V-430.5z"/>
		</g>
		<g>
			<path id="TeXGyreHeros-Regular-37" d="M273.3-368.5c-15.3-18.1-24.9-38.8-28.8-62h-9.4c5,22.3,14.7,42.6,29.1,60.7h-38.3v8.7
				h47.4V-368.5z"/>
		</g>
		<g>
			<path d="M328.9-368.5c-15.3-18.1-24.9-38.8-28.8-62h-9.4c5,22.3,14.7,42.6,29.1,60.7h-38.3v8.7h47.4V-368.5z"/>
		</g>
	</g>
</g>
<g id="text_10">
	<g transform="translate(108.602814 61.667635) scale(0.09 -0.09)">
		<g>
			<path d="M133.2-393.4c0-12.3-2.2-21.8-6.6-28.5c-4.4-6.7-10.7-10-18.9-10c-5.4,0-9.9,1.6-13.5,4.9c-3.6,3.3-5.8,7.8-6.6,13.6h8.8
				c0.7-3.4,2.1-6,4.2-7.9c2.1-1.9,4.6-2.8,7.7-2.8c5.1,0,8.9,2.3,11.6,7c2.7,4.6,4.1,11.3,4.2,20c-4.4-5.3-9.8-7.9-16.2-7.9
				c-6.4,0-11.6,2-15.7,6.1c-4.1,4.1-6.1,9.4-6.1,16c0,6.9,2.2,12.6,6.5,16.9c4.3,4.4,9.9,6.6,16.7,6.6
				C125.3-359.6,133.2-370.9,133.2-393.4z M123.6-382.9c0,4.5-1.4,8.3-4.1,11.2c-2.7,2.9-6.2,4.4-10.3,4.4c-4.1,0-7.4-1.4-10.1-4.2
				c-2.7-2.8-4-6.4-4-10.9c0-4.7,1.2-8.4,3.7-11c2.5-2.6,5.8-4,10.1-4c4.3,0,7.9,1.3,10.6,4C122.3-390.8,123.6-387.3,123.6-382.9z"
				/>
		</g>
		<g>
			<path d="M189.9-368.5c-15.3-18.1-24.9-38.8-28.8-62h-9.4c5,22.3,14.7,42.6,29.1,60.7h-38.3v8.7h47.4V-368.5z"/>
		</g>
		<g>
			<path d="M212.6-430.5h-10.4v10.4h10.4V-430.5z"/>
		</g>
		<g>
			<path id="TeXGyreHeros-Regular-35" d="M272.6-407c0-7.5-2.3-13.5-6.8-18.1c-4.5-4.6-10.3-6.9-17.5-6.9c-6.5,0-11.7,1.6-15.6,4.7
				c-3.9,3.1-6.5,8.1-7.9,15h8.8c2.1-7.9,6.9-11.9,14.5-11.9c4.9,0,8.7,1.4,11.4,4.2c2.7,2.8,4.1,6.7,4.1,11.8
				c0,5.2-1.4,9.3-4.2,12.2c-2.8,2.9-6.5,4.4-11.3,4.4c-2.7,0-5.1-0.5-7-1.5c-1.9-1-3.9-2.7-6-5.2H227l5.3,37.1h36.6v-8.7h-29.5
				l-2.8-18.3c3.9,2.9,8.3,4.3,13.1,4.3c6.8,0,12.3-2.1,16.5-6.4C270.5-394.4,272.6-400,272.6-407z"/>
		</g>
		<g>
			<path d="M328.2-410.5c0-6.4-2.2-11.6-6.7-15.5c-4.4-4-10.1-6-17.1-6c-7.1,0-12.8,2-17.2,6c-4.4,4-6.6,9.2-6.6,15.6
				c0,7.6,4,13.3,12.1,17.2c-3.6,2.3-6.1,4.5-7.5,6.6c-1.4,2.1-2.1,4.8-2.1,8.1c0,5.5,2,10.1,5.9,13.6c4,3.5,9.1,5.3,15.4,5.3
				c6.3,0,11.4-1.8,15.3-5.3c4-3.5,6-8.1,6-13.6c0-3.3-0.7-6.1-2.1-8.2c-1.4-2.1-3.9-4.3-7.6-6.5
				C324.2-397.1,328.2-402.9,328.2-410.5z M316.7-378.7c0,3.5-1.1,6.2-3.4,8.3c-2.2,2-5.2,3-8.9,3c-3.7,0-6.7-1-9-3
				c-2.2-2-3.3-4.7-3.3-8.1c0-3.3,1.1-6,3.3-8.1c2.2-2,5.2-3,9-3c3.7,0,6.6,1,8.9,3C315.6-384.7,316.7-382.1,316.7-378.7z
				 M319.2-410.6c0,4.1-1.3,7.4-4,9.8c-2.7,2.4-6.3,3.7-10.8,3.7s-8.1-1.2-10.8-3.7c-2.7-2.4-4-5.7-4-9.9c0-4.1,1.3-7.4,4-9.9
				c2.7-2.5,6.2-3.7,10.5-3.7c4.5,0,8.2,1.2,10.9,3.6C317.9-418.2,319.2-414.8,319.2-410.6z"/>
		</g>
	</g>
</g>
<g id="text_11">
	<g transform="translate(244.09567 80.576345) scale(0.09 -0.09)">
		<g>
			<path d="M133.6-410.5c0-6.4-2.2-11.6-6.7-15.5c-4.4-4-10.1-6-17.1-6c-7.1,0-12.8,2-17.2,6c-4.4,4-6.6,9.2-6.6,15.6
				c0,7.6,4,13.3,12.1,17.2c-3.6,2.3-6.1,4.5-7.5,6.6c-1.4,2.1-2.1,4.8-2.1,8.1c0,5.5,2,10.1,5.9,13.6c4,3.5,9.1,5.3,15.4,5.3
				c6.3,0,11.4-1.8,15.3-5.3c4-3.5,6-8.1,6-13.6c0-3.3-0.7-6.1-2.1-8.2c-1.4-2.1-3.9-4.3-7.6-6.5
				C129.6-397.1,133.6-402.9,133.6-410.5z M122.1-378.7c0,3.5-1.1,6.2-3.4,8.3c-2.2,2-5.2,3-8.9,3s-6.7-1-9-3
				c-2.2-2-3.3-4.7-3.3-8.1c0-3.3,1.1-6,3.3-8.1c2.2-2,5.2-3,9-3c3.7,0,6.6,1,8.9,3C121-384.7,122.1-382.1,122.1-378.7z
				 M124.6-410.6c0,4.1-1.3,7.4-4,9.8c-2.7,2.4-6.3,3.7-10.8,3.7s-8.1-1.2-10.8-3.7c-2.7-2.4-4-5.7-4-9.9c0-4.1,1.3-7.4,4-9.9
				c2.7-2.5,6.2-3.7,10.5-3.7c4.5,0,8.2,1.2,10.9,3.6C123.3-418.2,124.6-414.8,124.6-410.6z"/>
		</g>
		<g>
			<path d="M188.8-393.4c0-12.3-2.2-21.8-6.6-28.5c-4.4-6.7-10.7-10-18.9-10c-5.4,0-9.9,1.6-13.5,4.9c-3.6,3.3-5.8,7.8-6.6,13.6h8.8
				c0.7-3.4,2.1-6,4.2-7.9c2.1-1.9,4.6-2.8,7.7-2.8c5.1,0,8.9,2.3,11.6,7c2.7,4.6,4.1,11.3,4.2,20c-4.4-5.3-9.8-7.9-16.2-7.9
				c-6.4,0-11.6,2-15.7,6.1c-4.1,4.1-6.1,9.4-6.1,16c0,6.9,2.2,12.6,6.5,16.9c4.3,4.4,9.9,6.6,16.7,6.6
				C180.9-359.6,188.8-370.9,188.8-393.4z M179.2-382.9c0,4.5-1.4,8.3-4.1,11.2c-2.7,2.9-6.2,4.4-10.3,4.4c-4.1,0-7.4-1.4-10.1-4.2
				c-2.7-2.8-4-6.4-4-10.9c0-4.7,1.2-8.4,3.7-11c2.5-2.6,5.8-4,10.1-4c4.3,0,7.9,1.3,10.6,4C177.9-390.8,179.2-387.3,179.2-382.9z"
				/>
		</g>
		<g>
			<path d="M212.6-430.5h-10.4v10.4h10.4V-430.5z"/>
		</g>
		<g>
			<path d="M272-396.4c0-11.6-2-20.4-6-26.5c-4-6.1-9.7-9.1-17.3-9.1c-7.6,0-13.4,3-17.3,9.1c-3.9,6.1-5.9,15.1-5.9,27
				c0,11.9,1.9,21,5.8,27.1c3.9,6.1,9.7,9.2,17.4,9.2C264.3-359.6,272-371.9,272-396.4z M263-395.6c0,18.8-4.7,28.2-14.2,28.2
				s-14.2-9.5-14.2-28.5c0-19.2,4.7-28.8,14-28.8c4.9,0,8.6,2.3,10.9,7C261.9-413,263-405.6,263-395.6z"/>
		</g>
		<g>
			<path d="M327.8-393.4c0-12.3-2.2-21.8-6.6-28.5c-4.4-6.7-10.7-10-18.9-10c-5.4,0-9.9,1.6-13.5,4.9c-3.6,3.3-5.8,7.8-6.6,13.6h8.8
				c0.7-3.4,2.1-6,4.2-7.9c2.1-1.9,4.6-2.8,7.7-2.8c5.1,0,8.9,2.3,11.6,7c2.7,4.6,4.1,11.3,4.2,20c-4.4-5.3-9.8-7.9-16.2-7.9
				c-6.4,0-11.6,2-15.7,6.1c-4.1,4.1-6.1,9.4-6.1,16c0,6.9,2.2,12.6,6.5,16.9c4.3,4.4,9.9,6.6,16.7,6.6
				C319.9-359.6,327.8-370.9,327.8-393.4z M318.2-382.9c0,4.5-1.4,8.3-4.1,11.2c-2.7,2.9-6.2,4.4-10.3,4.4c-4.1,0-7.4-1.4-10.1-4.2
				c-2.7-2.8-4-6.4-4-10.9c0-4.7,1.2-8.4,3.7-11c2.5-2.6,5.8-4,10.1-4c4.3,0,7.9,1.3,10.6,4C316.9-390.8,318.2-387.3,318.2-382.9z"
				/>
		</g>
	</g>
</g>
<g id="legend_1">
	<g id="patch_11">
		<path class="st16" d="M50.1,75.2H176c1.2,0,1.8-0.6,1.8-1.8V59.5c0-1.2-0.6-1.8-1.8-1.8H50.1c-1.2,0-1.8,0.6-1.8,1.8v13.9
			C48.3,74.6,48.9,75.2,50.1,75.2z"/>
	</g>
	<g id="patch_12">
		<path class="st17" d="M52.8,68.7h18v-6.3h-18V68.7z"/>
	</g>
	<g id="text_13">
		<g transform="translate(67.895313 29.984844) scale(0.09 -0.09)">
			<g>
				<path id="TeXGyreHeros-Regular-54" d="M141.6-365.8h-23.9v-64.7h-9.3v64.7h-24v8.2h57.2V-365.8z"/>
			</g>
			<g>
				<path d="M175.5-385.4c-6.3-0.1-10.6-1.5-13.1-4.4c-2.5-2.9-3.7-7.4-3.7-13.5v-27.2h-8.3v52.4h7.6v-9.5c2.4,3.9,4.7,6.7,7,8.4
					c2.2,1.7,4.7,2.6,7.4,2.6c0.7,0,1.8-0.1,3.2-0.3V-385.4z"/>
			</g>
			<g>
				<path d="M230.2-430.3c-2.3-0.6-4.2-0.9-5.7-0.9c-2.1,0-3.9,0.7-5.5,2c-1.6,1.3-2.6,3-3.1,5c-4.8-5.1-10.7-7.7-17.8-7.7
					c-5.3,0-9.5,1.3-12.6,4c-3.1,2.7-4.6,6.4-4.6,11.1c0,6.5,3.1,11.1,9.2,13.6c1.7,0.7,3.4,1.2,5.3,1.5c1.9,0.4,5.7,0.9,11.5,1.7
					c3.3,0.4,5.5,1,6.8,1.9c1.3,0.9,1.9,2.2,1.9,3.9v2.2c0,2.5-1,4.5-3.1,5.8c-2,1.3-4.9,2-8.6,2c-3.9,0-6.8-0.8-8.8-2.3
					s-3.2-3.8-3.5-7h-8.4c0.5,11.3,7.5,17,21,17c6.5,0,11.4-1.2,14.7-3.7s5-6,5-10.7v-29.2c0-2.7,1.5-4.1,4.5-4.1
					c0.6,0,1.2,0.1,1.8,0.2V-430.3z M215.6-412.4v7.8c-2.2-1-6.7-2-13.4-2.9c-4.5-0.7-7.8-1.7-9.7-3c-1.9-1.4-2.9-3.4-2.9-6.2
					c0-5.3,3.4-8,10.3-8c4.2,0,7.9,1.2,11,3.5C214.1-419,215.6-416,215.6-412.4z"/>
			</g>
			<g>
				<path d="M247.6-430.5h-8.3v52.4h8.3V-430.5z M248.7-370.2h-10.4v10.4h10.4V-370.2z"/>
			</g>
			<g>
				<path d="M303.2-430.5h-8.3v36.3c0,3.1-1,5.6-2.9,7.5c-1.9,1.9-4.6,2.8-7.9,2.8c-4.3,0-7.7-1.6-10.3-4.8c-2.6-3.2-4-7.5-4-12.8
					v-28.9h-8.3v52.4h7.7v-8.8c2.3,3.7,4.8,6.3,7.5,7.9c2.7,1.6,6,2.4,9.8,2.4c5.1,0,9.1-1.3,12.1-3.9c3-2.6,4.5-6.1,4.5-10.4
					V-430.5z"/>
			</g>
			<g>
				<path d="M325.4-430.5h-8.3v52.4h8.3V-430.5z M326.5-370.2h-10.4v10.4h10.4V-370.2z"/>
			</g>
			<g>
				<path d="M381-430.5h-8.3v36.3c0,3.1-1,5.6-2.9,7.5c-1.9,1.9-4.6,2.8-7.9,2.8c-4.3,0-7.7-1.6-10.3-4.8c-2.6-3.2-4-7.5-4-12.8
					v-28.9h-8.3v52.4h7.7v-8.8c2.3,3.7,4.8,6.3,7.5,7.9c2.7,1.6,6,2.4,9.8,2.4c5.1,0,9.1-1.3,12.1-3.9c3-2.6,4.5-6.1,4.5-10.4
					V-430.5z"/>
			</g>
			<g>
				<path id="TeXGyreHeros-Regular-67" d="M436.8-421.9c0-11.3-1.8-19.2-5.4-23.7c-3.6-4.5-9.6-6.7-18-6.7c-6.1,0-11,1.4-14.7,4.2
					c-3.7,2.8-5.7,6.7-6.2,11.6h8.5c0.9-5.9,5.2-8.8,12.7-8.8c5.1,0,8.9,1.5,11.5,4.5c2.6,3,3.9,7.9,3.9,14.7v3.5
					c-2.8-3.3-5.5-5.7-8-7.2s-5.4-2.2-8.7-2.2c-6.3,0-11.4,2.5-15.5,7.5s-6.1,11.6-6.1,19.7c0,8.5,2,15.3,6.1,20.5
					c4.1,5.2,9.5,7.8,16.2,7.8c6.5,0,11.9-3,16-9.1v7.6h7.7V-421.9z M428.3-404.6c0,6.3-1.3,11.3-3.8,14.9c-2.5,3.6-6,5.4-10.5,5.4
					c-4.5,0-8-1.8-10.6-5.3c-2.6-3.5-3.9-8.4-3.9-14.7c0-6.3,1.3-11.3,3.8-14.8c2.6-3.5,6.2-5.3,10.8-5.3c4.4,0,7.9,1.7,10.4,5.2
					C427.1-415.7,428.3-410.8,428.3-404.6z"/>
			</g>
		</g>
	</g>
	<g id="patch_13">
		<path class="st18" d="M121.3,68.7h18v-6.3h-18V68.7z"/>
	</g>
	<g id="text_14">
		<g transform="translate(136.400781 29.984844) scale(0.09 -0.09)">
			<g>
				<path d="M141.6-365.8h-23.9v-64.7h-9.3v64.7h-24v8.2h57.2V-365.8z"/>
			</g>
			<g>
				<path d="M194.7-406.7h-38.6c0.1-5.8,1.5-10.2,4.3-13.2c2.8-3,6.5-4.4,11-4.4c7,0,11.6,3.2,13.7,9.7h8.4
					c-1.1-5.3-3.6-9.6-7.6-12.7c-4-3.1-8.9-4.7-14.8-4.7c-7.4,0-13.2,2.4-17.5,7.3c-4.2,4.8-6.3,11.5-6.3,20.1
					c0,8.6,2.2,15.4,6.5,20.5c4.3,5,10.2,7.6,17.5,7.6c4.9,0,9.3-1.2,13-3.7c3.8-2.5,6.5-5.8,8.2-10.1
					C194-394.1,194.7-399.5,194.7-406.7z M185.8-399.3c0,4.1-1.4,7.7-4.2,10.6c-2.8,2.9-6.2,4.4-10.3,4.4c-4.2,0-7.7-1.4-10.4-4.3
					c-2.7-2.9-4.3-6.6-4.6-11.3h29.4L185.8-399.3z"/>
			</g>
			<g>
				<path d="M244.9-415.8c0-5-2-9-5.9-11.9c-3.9-2.9-9.1-4.3-15.8-4.3c-6.9,0-12,1.4-15.5,4.3c-3.4,2.8-5.2,7.3-5.4,13.3h8.8
					c0.5-3.8,1.8-6.4,3.8-7.8c2-1.4,5-2,9-2c3.7,0,6.6,0.7,8.8,2.1c2.2,1.4,3.4,3.3,3.4,5.7c0,1.9-0.6,3.3-1.9,4.3
					c-1.2,1-3.3,1.9-6.3,2.6l-7.8,1.9c-6.2,1.5-10.5,3.3-13,5.5c-2.4,2.2-3.6,5.4-3.6,9.6c0,4.9,1.8,8.7,5.5,11.6
					c3.7,2.9,8.5,4.4,14.6,4.4c6.1,0,10.7-1.4,14-4.2c3.3-2.8,4.9-6.8,5-11.9H234c-0.2,5.6-3.7,8.4-10.5,8.4c-3.4,0-6.1-0.7-8.1-2.2
					c-2-1.4-3-3.3-3-5.8c0-1.9,0.8-3.4,2.3-4.5c1.5-1.2,4-2.2,7.4-3l8-1.9c5.3-1.3,9.1-3,11.4-5.2C243.8-409,244.9-412,244.9-415.8z
					"/>
			</g>
			<g>
				<path d="M274.4-430.5c-2.6-0.5-4.9-0.7-6.8-0.7c-3.3,0-5.8,0.7-7.5,2.1c-1.7,1.4-2.6,3.5-2.6,6.2v38h-7.1v6.8h7.1v14.4h8.3
					v-14.4h8.6v-6.8h-8.6v-34.3c0-1.9,0.3-3.1,1-3.8c0.6-0.6,1.9-1,3.7-1c1.7,0,3,0.1,4,0.4V-430.5z"/>
			</g>
			<g>
				<path d="M292.1-430.5h-8.3v52.4h8.3V-430.5z M293.2-370.2h-10.4v10.4h10.4V-370.2z"/>
			</g>
			<g>
				<path d="M347.7-430.5h-8.3v36.3c0,3.1-1,5.6-2.9,7.5c-1.9,1.9-4.6,2.8-7.9,2.8c-4.3,0-7.7-1.6-10.3-4.8c-2.6-3.2-4-7.5-4-12.8
					v-28.9H306v52.4h7.7v-8.8c2.3,3.7,4.8,6.3,7.5,7.9c2.7,1.6,6,2.4,9.8,2.4c5.1,0,9.1-1.3,12.1-3.9c3-2.6,4.5-6.1,4.5-10.4V-430.5
					z"/>
			</g>
			<g>
				<path d="M403.5-421.9c0-11.3-1.8-19.2-5.4-23.7c-3.6-4.5-9.6-6.7-18-6.7c-6.1,0-11,1.4-14.7,4.2c-3.7,2.8-5.7,6.7-6.2,11.6h8.5
					c0.9-5.9,5.2-8.8,12.7-8.8c5.1,0,8.9,1.5,11.5,4.5c2.6,3,3.9,7.9,3.9,14.7v3.5c-2.8-3.3-5.5-5.7-8-7.2s-5.4-2.2-8.7-2.2
					c-6.3,0-11.4,2.5-15.5,7.5s-6.1,11.6-6.1,19.7c0,8.5,2,15.3,6.1,20.5c4.1,5.2,9.5,7.8,16.2,7.8c6.5,0,11.9-3,16-9.1v7.6h7.7
					V-421.9z M395-404.6c0,6.3-1.3,11.3-3.8,14.9c-2.5,3.6-6,5.4-10.5,5.4c-4.5,0-8-1.8-10.6-5.3c-2.6-3.5-3.9-8.4-3.9-14.7
					c0-6.3,1.3-11.3,3.8-14.8c2.6-3.5,6.2-5.3,10.8-5.3c4.4,0,7.9,1.7,10.4,5.2C393.8-415.7,395-410.8,395-404.6z"/>
			</g>
		</g>
	</g>
</g>
<text transform="matrix(1 0 0 1 59.7708 15.6145)"><tspan x="0" y="0" class="st19 st20">Six-point touch prediction: </tspan><tspan x="21.3" y="21.6" class="st21 st20">metrics of CNN accuracy</tspan></text>
<text transform="matrix(8.565296e-04 -1 1 8.565296e-04 13.1081 321.7446)" class="st21 st22">Proportion of Correct Predictions (%)</text>
<text transform="matrix(1 0 0 1 61.5033 350.6747)" class="st21 st22">Individual tiles</text>
<text transform="matrix(1 0 0 1 208.5016 350.6751)"><tspan x="0" y="0" class="st21 st22">Full six-tile</tspan><tspan x="6.5" y="16.8" class="st21 st22">patterns</tspan></text>
</svg>
